# xmcd
#
# Track frame offsets:
#	150
#	14308
#	27188
#	40774
#	56383
#	69406
#	83162
#	97163
#	110437
#	124601
#	140109
#	153738
#	168297
#
# Disc length: 2459 seconds
#
# Revision: 0
# Processed by: cddbd v1.5.2PL0 Copyright (c) Steve Scherf et al.
# Submitted via: dBpowerAMP V4.0
#
DISCID=a809990d
DTITLE=Truck Stop - Wilde Reiter - 2002
DYEAR=2002
DGENRE=Country
TTITLE0=So stell' ich mir den Himmel vor
TTITLE1=Cops and Trucker
TTITLE2=Morgens in Montana
TTITLE3=Wilde Reiter
TTITLE4=Sagt'n Cowboy howdy, howdy
TTITLE5=Eine Hand voller Gründe
TTITLE6=Ein wahrer Freund
TTITLE7=Bock auf'n Pickup Truck
TTITLE8=Ein Mann im besten Alter
TTITLE9=Mit 'ner Herde wilder Pferde
TTITLE10=Sitzt, passt, wackelt und hat Luft
TTITLE11=Ohne dich keine Liebe
TTITLE12=Immer noch wach
EXTD=
EXTT0=
EXTT1=
EXTT2=
EXTT3=
EXTT4=
EXTT5=
EXTT6=
EXTT7=
EXTT8=
EXTT9=
EXTT10=
EXTT11=
EXTT12=
PLAYORDER=
